<svg xmlns="http://www.w3.org/2000/svg" xmlns:xlink="http://www.w3.org/1999/xlink" width="500" zoomAndPan="magnify" viewBox="0 0 375 374.999991" height="500" preserveAspectRatio="xMidYMid meet" version="1.0"><defs><g/><clipPath id="4534b77a4c"><path d="M 97.222656 123 L 277.972656 123 L 277.972656 278.128906 L 97.222656 278.128906 Z M 97.222656 123 " clip-rule="nonzero"/></clipPath><clipPath id="31635459a0"><path d="M 130 241 L 265 241 L 265 278.128906 L 130 278.128906 Z M 130 241 " clip-rule="nonzero"/></clipPath><clipPath id="e3bed3c310"><path d="M 185 240 L 255 240 L 255 278.128906 L 185 278.128906 Z M 185 240 " clip-rule="nonzero"/></clipPath></defs><g fill="#171b3e" fill-opacity="1"><g transform="translate(146.380533, 282.343084)"><g><path d="M -0.726562 -0.417969 L -11.796875 -6.753906 C -17.417969 -9.972656 -20.75 -9.480469 -23.101562 -5.375 C -24.71875 -2.550781 -23.855469 -0.0078125 -22.09375 1.777344 C -24.777344 1.398438 -26.128906 2.210938 -27.53125 4.65625 C -29.347656 7.832031 -28.082031 10.953125 -23.246094 13.722656 L -12.382812 19.941406 L -10.230469 16.183594 L -11.921875 15.21875 L -4.585938 2.402344 L -2.894531 3.371094 Z M -17.898438 11.679688 L -19.734375 10.628906 C -20.84375 9.996094 -21.207031 8.742188 -20.441406 7.402344 C -19.640625 6.003906 -18.71875 5.410156 -17.175781 6.292969 L -15.398438 7.308594 Z M -10.613281 -1.050781 L -13.515625 4.019531 L -15.757812 2.734375 C -17.359375 1.816406 -17.585938 0.257812 -16.738281 -1.230469 C -15.835938 -2.800781 -14.167969 -3.082031 -12.945312 -2.382812 Z M -10.613281 -1.050781 "/></g></g></g><g fill="#171b3e" fill-opacity="1"><g transform="translate(125.152329, 269.426208)"><g><path d="M -15.953125 17.21875 L -13.0625 13.863281 L -14.664062 12.484375 L -5.152344 1.453125 L -3.550781 2.832031 L -0.636719 -0.546875 L -9.074219 -7.824219 L -11.988281 -4.445312 L -10.414062 -3.085938 L -19.925781 7.945312 L -21.5 6.585938 L -24.394531 9.941406 Z M -15.953125 17.21875 "/></g></g></g><g fill="#171b3e" fill-opacity="1"><g transform="translate(113.855795, 259.909924)"><g><path d="M -18.78125 14.082031 L -15.332031 11.300781 L -16.492188 9.863281 L -5.160156 0.714844 L -4 2.152344 L -0.527344 -0.652344 L -12.332031 -15.277344 L -19.121094 -9.792969 L -15.582031 -5.40625 L -12.265625 -8.085938 L -9.542969 -4.714844 L -20.878906 4.433594 L -21.996094 3.050781 L -25.441406 5.832031 Z M -18.78125 14.082031 "/></g></g></g><g fill="#171b3e" fill-opacity="1"><g transform="translate(100.088739, 242.572149)"><g><path d="M -21.347656 9.765625 L -17.386719 7.777344 L -18.214844 6.128906 L -5.195312 -0.398438 L -4.367188 1.25 L -0.375 -0.75 L -8.800781 -17.550781 L -16.601562 -13.640625 L -14.074219 -8.597656 L -10.261719 -10.507812 L -8.320312 -6.640625 L -21.34375 -0.113281 L -22.140625 -1.703125 L -26.101562 0.285156 Z M -21.347656 9.765625 "/></g></g></g><g fill="#171b3e" fill-opacity="1"><g transform="translate(90.577422, 222.200506)"><g><path d="M -24.796875 -0.519531 L -22.824219 5.824219 L -13.609375 1.664062 L -14.855469 -2.34375 Z M -24.796875 -0.519531 "/></g></g></g><g fill="#171b3e" fill-opacity="1"><g transform="translate(86.812727, 211.696764)"><g><path d="M -0.101562 -0.832031 L -0.820312 -6.660156 L -3.429688 -6.710938 C -2.085938 -8.164062 -0.808594 -10.6875 -1.222656 -14.050781 C -1.710938 -18.015625 -4.175781 -22.648438 -9.371094 -22.007812 C -17.199219 -21.042969 -14.777344 -7.953125 -18.207031 -7.53125 C -19.371094 -7.386719 -20.136719 -8.644531 -20.253906 -9.609375 C -20.542969 -11.941406 -19.382812 -14.046875 -16.917969 -14.351562 L -17.660156 -20.378906 L -26.019531 -19.347656 L -25.3125 -13.621094 L -22.476562 -13.632812 C -24.808594 -11.992188 -25.359375 -9.050781 -25.015625 -6.25 C -24.613281 -2.988281 -21.804688 1.402344 -16.875 0.792969 C -8.382812 -0.253906 -11.058594 -12.90625 -8.460938 -13.226562 C -7.0625 -13.398438 -6.589844 -11.765625 -6.445312 -10.601562 C -6.339844 -9.195312 -6.460938 -6.339844 -9.257812 -5.996094 L -8.496094 0.199219 Z M -0.101562 -0.832031 "/></g></g></g><g fill="#171b3e" fill-opacity="1"><g transform="translate(84.505812, 186.06456)"><g/></g></g><g fill="#171b3e" fill-opacity="1"><g transform="translate(84.688046, 175.591571)"><g><path d="M -22.726562 -5.875 L -18.433594 -4.929688 L -18.027344 -6.761719 L -3.738281 -3.609375 L -4.144531 -1.773438 L 0.179688 -0.820312 L 2.511719 -11.371094 L -1.816406 -12.328125 L -2.257812 -10.328125 L -7.335938 -11.449219 L -6.785156 -13.9375 C -5.753906 -18.625 -7.046875 -23.035156 -11.375 -23.992188 C -15.109375 -24.816406 -18.703125 -24.097656 -20.382812 -16.492188 Z M -16.578125 -13.488281 L -16.214844 -15.128906 C -15.796875 -17.027344 -14.496094 -17.941406 -12.5625 -17.515625 C -10.824219 -17.132812 -10.132812 -15.605469 -10.550781 -13.703125 L -10.875 -12.230469 Z M -16.578125 -13.488281 "/></g></g></g><g fill="#171b3e" fill-opacity="1"><g transform="translate(89.896677, 153.077706)"><g><path d="M -20.90625 -10.671875 L -16.890625 -8.800781 L -16.113281 -10.472656 L -2.910156 -4.320312 L -3.691406 -2.644531 L 0.355469 -0.761719 L 8.296875 -17.792969 L 0.386719 -21.480469 L -1.996094 -16.371094 L 1.867188 -14.570312 L 0.0390625 -10.644531 L -13.164062 -16.800781 L -12.410156 -18.414062 L -16.425781 -20.285156 Z M -20.90625 -10.671875 "/></g></g></g><g fill="#171b3e" fill-opacity="1"><g transform="translate(99.145423, 133.079491)"><g><path d="M -18.078125 -14.960938 L -14.65625 -12.25 L -13.492188 -13.722656 L -6.992188 -8.578125 C -1.019531 -3.847656 4.019531 -4.480469 8.386719 -9.667969 C 12.304688 -14.617188 11.550781 -19.449219 5.316406 -24.386719 L -1.078125 -29.449219 L 0.046875 -30.871094 L -3.347656 -33.558594 L -9.515625 -25.773438 L -6.039062 -23.023438 L -4.914062 -24.441406 L 0.660156 -20.023438 C 5.1875 -16.441406 4.984375 -14.890625 3.714844 -13.285156 C 2.378906 -11.601562 0.734375 -11.363281 -3.5 -14.714844 L -9.183594 -19.214844 L -8.058594 -20.636719 L -11.453125 -23.324219 Z M -18.078125 -14.960938 "/></g></g></g><g fill="#171b3e" fill-opacity="1"><g transform="translate(114.890395, 112.411964)"><g><path d="M 9.910156 -28.257812 L 11.039062 -26.632812 L 17.4375 -17.429688 L 15.894531 -16.355469 L 18.382812 -12.773438 L 27.09375 -18.824219 L 24.601562 -22.40625 L 23.085938 -21.355469 L 14.660156 -33.480469 L 16.175781 -34.535156 L 13.707031 -38.089844 L 3.207031 -30.792969 L 7.722656 -18.648438 L -2.222656 -27.019531 L -12.667969 -19.761719 L -10.199219 -16.207031 L -8.738281 -17.222656 L -0.292969 -5.066406 L -1.78125 -4.035156 L 0.6875 -0.480469 L 8.15625 -5.667969 L 5.6875 -9.222656 L 4.117188 -8.132812 L -3.429688 -18.992188 L -3.316406 -19.066406 C -2.277344 -17.746094 -0.828125 -16.425781 -0.363281 -16.050781 L 10.363281 -7.199219 L 16.121094 -11.203125 L 11.566406 -23.933594 C 11.320312 -24.703125 10.441406 -26.789062 9.800781 -28.183594 Z M 9.910156 -28.257812 "/></g></g></g><g fill="#171b3e" fill-opacity="1"><g transform="translate(144.091531, 93.257248)"><g><path d="M 0.796875 -0.265625 L 12.898438 -4.289062 C 19.042969 -6.332031 20.902344 -9.144531 19.410156 -13.632812 C 18.382812 -16.722656 15.910156 -17.777344 13.40625 -17.648438 C 15.476562 -19.398438 15.773438 -20.949219 14.882812 -23.625 C 13.730469 -27.09375 10.558594 -28.234375 5.273438 -26.476562 L -6.605469 -22.523438 L -5.242188 -18.417969 L -3.394531 -19.03125 L 1.265625 -5.019531 L -0.582031 -4.40625 Z M 3.230469 -21.128906 L 5.238281 -21.796875 C 6.445312 -22.199219 7.625 -21.632812 8.113281 -20.167969 C 8.621094 -18.640625 8.449219 -17.558594 6.761719 -16.996094 L 4.820312 -16.351562 Z M 7.859375 -7.210938 L 6.015625 -12.753906 L 8.46875 -13.566406 C 10.21875 -14.148438 11.535156 -13.277344 12.074219 -11.65625 C 12.648438 -9.933594 11.742188 -8.503906 10.40625 -8.058594 Z M 7.859375 -7.210938 "/></g></g></g><g fill="#171b3e" fill-opacity="1"><g transform="translate(167.87152, 86.047656)"><g><path d="M -2.195312 -23.371094 L -1.625 -18.976562 L 0.472656 -19.25 L 2.351562 -4.808594 L 0.257812 -4.535156 L 0.832031 -0.109375 L 11.882812 -1.546875 L 11.304688 -5.972656 L 9.242188 -5.703125 L 7.363281 -20.148438 L 9.425781 -20.414062 L 8.851562 -24.808594 Z M -2.195312 -23.371094 "/></g></g></g><g fill="#171b3e" fill-opacity="1"><g transform="translate(182.265233, 83.585155)"><g><path d="M 28.019531 -16.898438 L 28.371094 -21.214844 L 18.304688 -22.039062 L 17.949219 -17.722656 L 20.226562 -17.539062 L 19.574219 -9.578125 L 12.382812 -22.523438 L 2.785156 -23.308594 L 2.429688 -18.996094 L 4.371094 -18.835938 L 3.164062 -4.085938 L 1.191406 -4.246094 L 0.835938 0.0703125 L 11.105469 0.910156 L 11.457031 -3.40625 L 8.882812 -3.617188 L 9.574219 -12.046875 L 17.058594 1.398438 L 24.25 1.984375 L 25.8125 -17.078125 Z M 28.019531 -16.898438 "/></g></g></g><g fill="#171b3e" fill-opacity="1"><g transform="translate(210.809108, 86.188671)"><g><path d="M 16.410156 6.035156 L 22.710938 8.351562 L 25.605469 0.476562 L 26.867188 0.9375 L 28.105469 -2.433594 L 17.648438 -6.277344 L 16.410156 -2.90625 L 18.328125 -2.199219 L 17.84375 -0.878906 C 17.070312 -0.230469 16.046875 0.214844 14.253906 -0.445312 C 11.511719 -1.453125 10.886719 -4.613281 12.066406 -7.828125 C 13.226562 -10.976562 16.007812 -13.101562 18.558594 -12.164062 C 20.417969 -11.480469 21.523438 -9.429688 20.679688 -6.84375 L 26.320312 -4.769531 L 29.734375 -14.0625 L 25.042969 -15.789062 L 23.546875 -13.761719 C 23.226562 -14.453125 22.945312 -16.988281 18.375 -18.667969 C 13.464844 -20.472656 6.96875 -17.496094 4.445312 -10.628906 C 1.941406 -3.828125 4.746094 2.066406 10.257812 4.09375 C 12.683594 4.984375 15.042969 4.601562 16.164062 3.691406 Z M 16.410156 6.035156 "/></g></g></g><g fill="#171b3e" fill-opacity="1"><g transform="translate(236.604326, 96.723407)"><g/></g></g><g fill="#171b3e" fill-opacity="1"><g transform="translate(245.794842, 101.639756)"><g><path d="M 24.25 5.121094 L 20.710938 8.761719 C 20.101562 8.238281 19.402344 7.765625 18.683594 7.058594 C 17.9375 7.613281 17.15625 8.003906 16.222656 8.214844 C 16.125 9.769531 16.4375 11.105469 17.957031 11.394531 C 16.949219 12.566406 12.621094 13.53125 11.609375 8.894531 C 7.515625 8.601562 0.0976562 2.609375 5.027344 -3.109375 C 8.027344 -6.59375 11.699219 -5.867188 13.453125 -5.640625 C 14.265625 -11.675781 19.828125 -12.421875 22.828125 -9.835938 C 27.835938 -5.519531 24.523438 0.839844 16.789062 -0.464844 C 16.296875 2.167969 16.199219 3.769531 16.242188 4.644531 C 17.890625 4.117188 18.367188 3.464844 20.054688 1.507812 Z M 17.761719 -4.675781 C 21.097656 -3.972656 23.046875 -5.925781 21.316406 -7.417969 C 19.4375 -9.035156 17.691406 -6.242188 17.761719 -4.675781 Z M 12.476562 -1.476562 C 4.910156 -1.484375 7.417969 5.015625 11.589844 5.109375 C 11.566406 2.875 12.082031 0.21875 12.476562 -1.476562 Z M 12.476562 -1.476562 "/></g></g></g><g fill="#171b3e" fill-opacity="1"><g transform="translate(264.500769, 118.842375)"><g/></g></g><g fill="#171b3e" fill-opacity="1"><g transform="translate(271.538519, 126.458789)"><g><path d="M 20.96875 -10.554688 L 17.085938 -8.421875 L 17.972656 -6.804688 L 5.175781 0.222656 L 4.285156 -1.394531 L 0.402344 0.734375 L 5.636719 10.265625 L 9.519531 8.136719 L 8.519531 6.3125 L 12.960938 3.871094 L 16.027344 9.460938 L 11.585938 11.902344 L 10.632812 10.164062 L 6.75 12.296875 L 12 21.859375 L 15.882812 19.726562 L 14.945312 18.019531 L 27.742188 10.996094 L 28.679688 12.703125 L 32.5625 10.570312 L 27.316406 1.007812 L 23.429688 3.140625 L 24.382812 4.875 L 19.941406 7.316406 L 16.875 1.726562 L 21.316406 -0.714844 L 22.316406 1.109375 L 26.199219 -1.023438 Z M 20.96875 -10.554688 "/></g></g></g><g fill="#171b3e" fill-opacity="1"><g transform="translate(284.267011, 150.502893)"><g><path d="M 22.898438 -5.15625 L 18.617188 -4.03125 L 19.152344 -1.984375 L 5.066406 1.71875 L 4.53125 -0.324219 L 0.214844 0.8125 L 5.363281 20.382812 L 12.699219 18.453125 L 11.21875 12.835938 L 8.203125 13.632812 L 6.835938 8.4375 L 12.125 7.046875 L 13.75 13.214844 L 18.066406 12.078125 L 16.441406 5.910156 L 20.921875 4.734375 L 22.289062 9.925781 L 19.398438 10.6875 L 20.875 16.300781 L 28.050781 14.414062 Z M 22.898438 -5.15625 "/></g></g></g><g fill="#171b3e" fill-opacity="1"><g transform="translate(290.383039, 173.05153)"><g><path d="M 0.113281 27.117188 L 4.507812 27.097656 L 4.5 24.75 L 23.535156 18.730469 L 23.484375 5.84375 L 19.152344 5.859375 L 19.160156 7.238281 L 4.40625 2.765625 L 4.398438 0.484375 L 0.00390625 0.503906 L 0.046875 11.175781 L 4.441406 11.15625 L 4.433594 8.539062 L 6.71875 9.234375 L 6.746094 16.113281 L 4.464844 16.828125 L 4.453125 13.640625 L 0.0585938 13.660156 Z M 10.75 10.460938 L 18.007812 12.609375 L 10.765625 14.855469 Z M 10.75 10.460938 "/></g></g></g><g fill="#171b3e" fill-opacity="1"><g transform="translate(290.064701, 201.990922)"><g><path d="M 16.859375 28.214844 L 22.566406 6.433594 L 14.125 4.21875 L 12.875 8.992188 L 17.03125 10.082031 L 16.296875 12.875 L 2.207031 9.183594 L 2.90625 6.519531 L -1.410156 5.390625 L -4.574219 17.464844 L -0.257812 18.597656 L 0.449219 15.902344 L 14.539062 19.59375 L 13.824219 22.320312 L 9.667969 21.230469 L 8.417969 26.003906 Z M 16.859375 28.214844 "/></g></g></g><g fill="#171b3e" fill-opacity="1"><g transform="translate(282.98505, 226.282421)"><g><path d="M 20.757812 10.957031 L 16.769531 9.03125 L 15.851562 10.933594 L 2.734375 4.601562 L 3.65625 2.695312 L -0.363281 0.753906 L -5.210938 10.789062 L -1.191406 12.730469 L -0.285156 10.855469 L 12.828125 17.191406 L 11.921875 19.066406 L 15.914062 20.992188 Z M 20.757812 10.957031 "/></g></g></g><g fill="#171b3e" fill-opacity="1"><g transform="translate(277.166958, 239.674285)"><g><path d="M -1.199219 32.699219 L 2.21875 35.355469 L 8.421875 27.382812 L 5.003906 24.726562 L 3.601562 26.527344 L -2.703125 21.621094 L 12.066406 22.695312 L 17.980469 15.089844 L 14.5625 12.433594 L 13.367188 13.96875 L 1.6875 4.882812 L 2.902344 3.320312 L -0.515625 0.664062 L -6.839844 8.792969 L -3.421875 11.453125 L -1.835938 9.414062 L 4.839844 14.605469 L -10.507812 13.511719 L -14.9375 19.207031 L 0.160156 30.949219 Z M -1.199219 32.699219 "/></g></g></g><g fill="#171b3e" fill-opacity="1"><g transform="translate(259.356732, 262.136353)"><g><path d="M -14.035156 10.429688 L -19.421875 14.433594 L -14.417969 21.167969 L -15.496094 21.96875 L -13.351562 24.851562 L -4.410156 18.203125 L -6.550781 15.320312 L -8.195312 16.542969 L -9.035156 15.410156 C -9.152344 14.410156 -8.964844 13.3125 -7.429688 12.171875 C -5.085938 10.429688 -2.097656 11.636719 -0.0585938 14.382812 C 1.945312 17.078125 2.199219 20.570312 0.015625 22.191406 C -1.574219 23.371094 -3.894531 23.171875 -5.597656 21.050781 L -10.417969 24.632812 L -4.511719 32.582031 L -0.5 29.597656 L -1.375 27.238281 C -0.625 27.347656 1.652344 28.5 5.558594 25.597656 C 9.761719 22.476562 10.824219 15.410156 6.460938 9.539062 C 2.136719 3.722656 -4.328125 2.839844 -9.042969 6.34375 C -11.117188 7.882812 -12.085938 10.070312 -11.9375 11.503906 Z M -14.035156 10.429688 "/></g></g></g><g fill="#171b3e" fill-opacity="1"><g transform="translate(236.420033, 277.952995)"><g/></g></g><g clip-path="url(#4534b77a4c)"><path fill="#1c9cdf" d="M 97.210938 200.707031 C 97.210938 157.960938 137.671875 123.308594 187.585938 123.308594 C 237.5 123.308594 277.960938 157.960938 277.960938 200.707031 C 277.960938 243.453125 237.5 278.105469 187.585938 278.105469 C 137.671875 278.105469 97.210938 243.453125 97.210938 200.707031 " fill-opacity="1" fill-rule="nonzero"/><path fill="#ffffff" d="M 152.972656 272.226562 L 155.324219 271.128906 L 152.535156 272.070312 C 151.183594 271.582031 149.851562 271.066406 148.535156 270.527344 L 154.328125 268.390625 L 147.472656 270.082031 C 146.164062 269.527344 144.871094 268.941406 143.597656 268.332031 L 153.5625 265.585938 L 141.808594 267.457031 C 140.574219 266.832031 139.359375 266.1875 138.164062 265.515625 L 153.035156 262.722656 L 135.59375 264.019531 C 134.46875 263.34375 133.363281 262.644531 132.28125 261.925781 L 152.75 259.824219 L 128.949219 259.605469 C 127.972656 258.890625 127.015625 258.160156 126.074219 257.410156 L 152.710938 256.917969 L 122.125 254.066406 C 121.320312 253.34375 120.53125 252.605469 119.757812 251.855469 L 152.914062 254.011719 L 115.445312 247.332031 C 114.824219 246.628906 114.214844 245.914062 113.617188 245.1875 L 153.359375 251.136719 L 109.3125 239.417969 C 108.867188 238.757812 108.429688 238.09375 108.007812 237.421875 L 154.046875 248.308594 L 104.125 230.449219 C 103.835938 229.855469 103.558594 229.261719 103.289062 228.664062 L 154.96875 245.546875 L 100.234375 220.628906 C 100.078125 220.117188 99.925781 219.609375 99.777344 219.09375 L 156.117188 242.871094 L 97.890625 210.234375 C 97.828125 209.8125 97.773438 209.386719 97.71875 208.957031 L 157.488281 240.300781 L 97.222656 199.554688 C 97.226562 199.207031 97.234375 198.863281 97.246094 198.519531 L 159.066406 237.855469 L 98.265625 188.859375 C 98.3125 188.589844 98.363281 188.320312 98.414062 188.050781 L 160.847656 235.546875 L 101.003906 178.445312 L 101.226562 177.824219 L 162.816406 233.398438 L 105.359375 168.546875 L 105.605469 168.085938 L 164.957031 231.421875 L 111.171875 159.363281 L 111.421875 159.027344 L 167.253906 229.628906 L 118.273438 151.035156 L 118.507812 150.796875 L 169.695312 228.035156 L 126.480469 143.679688 L 126.695312 143.511719 L 172.261719 226.652344 L 135.613281 137.378906 L 135.804688 137.265625 L 174.9375 225.488281 L 145.503906 132.191406 L 145.671875 132.117188 L 177.699219 224.550781 L 155.980469 128.171875 L 156.128906 128.125 L 180.53125 223.84375 L 166.882812 125.347656 L 167.019531 125.320312 L 183.410156 223.378906 L 178.054688 123.734375 L 178.183594 123.722656 L 186.320312 223.15625 L 189.34375 123.320312 L 189.46875 123.324219 L 189.238281 223.175781 L 200.609375 124.105469 L 200.734375 124.121094 L 192.140625 223.441406 L 211.699219 126.09375 L 211.835938 126.125 L 195.015625 223.945312 L 222.464844 129.28125 L 222.617188 129.335938 L 197.835938 224.6875 L 232.75 133.648438 L 232.921875 133.734375 L 200.585938 225.664062 L 242.386719 139.152344 L 242.582031 139.28125 L 203.242188 226.867188 L 251.210938 145.738281 L 251.433594 145.925781 L 205.789062 228.289062 L 259.058594 153.328125 L 259.300781 153.59375 L 208.210938 229.914062 L 265.75 161.828125 L 266.003906 162.199219 L 210.484375 231.738281 L 271.121094 171.109375 L 271.359375 171.613281 L 212.597656 233.746094 L 275.011719 181.007812 L 275.210938 181.679688 L 214.53125 235.921875 L 277.304688 191.3125 C 277.34375 191.605469 277.382812 191.894531 277.421875 192.183594 L 216.28125 238.253906 L 277.953125 201.773438 C 277.949219 202.136719 277.941406 202.503906 277.929688 202.871094 L 217.828125 240.71875 L 276.988281 212.105469 C 276.910156 212.554688 276.828125 213.003906 276.742188 213.449219 L 219.160156 243.308594 L 274.480469 222.050781 C 274.300781 222.585938 274.117188 223.121094 273.925781 223.648438 L 220.273438 246 L 270.601562 231.347656 C 270.292969 231.964844 269.972656 232.574219 269.648438 233.179688 L 221.15625 248.773438 L 265.621094 239.777344 C 265.152344 240.457031 264.675781 241.132812 264.1875 241.800781 L 221.800781 251.613281 L 259.871094 247.171875 C 259.234375 247.898438 258.582031 248.613281 257.917969 249.320312 L 222.207031 254.492188 L 253.707031 253.46875 C 252.902344 254.210938 252.074219 254.941406 251.234375 255.65625 L 222.371094 257.402344 L 247.464844 258.679688 C 246.496094 259.414062 245.515625 260.128906 244.511719 260.824219 L 222.292969 260.308594 L 241.398438 262.894531 C 240.300781 263.59375 239.183594 264.269531 238.050781 264.925781 L 221.964844 263.203125 L 235.6875 266.246094 C 234.492188 266.886719 233.277344 267.511719 232.046875 268.109375 L 221.398438 266.054688 L 230.4375 268.871094 C 229.175781 269.453125 227.898438 270.007812 226.601562 270.542969 L 220.59375 268.851562 L 225.675781 270.917969 C 224.378906 271.433594 223.066406 271.921875 221.738281 272.390625 L 219.558594 271.574219 L 221.398438 272.507812 C 210.953125 276.117188 199.542969 278.105469 187.585938 278.105469 C 175.324219 278.105469 163.636719 276.011719 152.972656 272.226562 " fill-opacity="1" fill-rule="nonzero"/></g><g clip-path="url(#31635459a0)"><path fill="#171b3e" d="M 130.832031 260.941406 L 264.367188 241.554688 C 248.414062 263.5 219.992188 278.105469 187.585938 278.105469 C 166.089844 278.105469 146.34375 271.675781 130.832031 260.941406 " fill-opacity="1" fill-rule="nonzero"/></g><path fill="#171b3e" d="M 149.890625 223.894531 C 145.390625 227.097656 141.546875 230.785156 136.871094 235.269531 L 110.351562 220.660156 C 111.09375 219.292969 111.679688 218.140625 112.109375 217.207031 C 114.035156 207.9375 118.371094 199.640625 125.121094 192.316406 L 126.59375 187.542969 C 121.820312 142.863281 135.523438 132.894531 153.472656 129.207031 C 156.867188 124.300781 158.519531 123.5 161.914062 122.96875 L 164.105469 120.78125 L 164.960938 116.8125 C 160.589844 113.554688 160.347656 111.679688 164.242188 111.1875 C 166.175781 102.328125 174.257812 97.410156 183.558594 99.328125 C 191.027344 100.871094 198.78125 105.273438 196.035156 119.128906 C 198.070312 120.910156 198.667969 122.679688 197.824219 124.433594 C 196.890625 124.777344 194.609375 124.507812 190.984375 123.632812 L 190.53125 126.355469 L 189.058594 127.472656 L 188.207031 129.789062 L 190.53125 130.589844 C 196.046875 132.121094 200.667969 136.269531 204.398438 143.035156 L 208.511719 146.023438 C 211.730469 145.546875 215.203125 148.300781 216.019531 152.578125 C 219.484375 154.644531 222.914062 157.515625 226.304688 161.1875 C 229.46875 164.34375 231.242188 166.226562 232.730469 170.976562 C 233.863281 170.976562 235.398438 171.46875 237.339844 172.453125 L 238.332031 188.476562 L 242.0625 193.511719 L 246.425781 201.058594 L 244.5 210.515625 C 241.714844 210.808594 239.976562 208.003906 241.035156 202.59375 L 234.800781 196.953125 L 230.554688 197.9375 C 230.605469 203.644531 227.671875 206.839844 224.878906 203.871094 L 224.535156 201.683594 L 224.878906 194.421875 L 227.777344 190.261719 L 217.847656 184.0625 C 217.855469 182.5 218.550781 179.628906 219.46875 177.757812 C 215.765625 174.496094 213.3125 171.808594 210.25 167.609375 L 206.453125 166.089844 C 201.011719 166.410156 197.492188 164.730469 195.902344 161.054688 L 192.589844 159.800781 C 190.394531 167.214844 177.613281 183.152344 177.613281 183.152344 L 192.585938 191.441406 C 192.585938 191.441406 203.433594 192.316406 205.5 193.855469 C 207.808594 196.546875 208.949219 198.839844 209.847656 200.390625 C 209.394531 202.375 207.621094 202.554688 204.53125 200.921875 C 199.75 201.546875 207.792969 213.503906 207.792969 213.503906 C 206.96875 214.839844 204.910156 215.199219 201.621094 214.570312 C 199.253906 215.628906 196.882812 215.539062 194.511719 214.300781 C 192.757812 214.738281 190.984375 214.335938 189.195312 213.101562 C 187.929688 213.191406 187.023438 212.773438 186.46875 211.851562 L 185.347656 204.226562 L 175.195312 204.894531 C 186.277344 213.449219 194.683594 220.359375 200.417969 225.628906 C 201.800781 231.144531 202.753906 240.617188 203.277344 254.039062 L 180.03125 256.542969 C 179.246094 252.753906 179.246094 246.730469 180.03125 238.476562 L 149.890625 223.894531 " fill-opacity="1" fill-rule="evenodd"/><path fill="#171b3e" d="M 256.125 250.253906 C 255.945312 244.863281 253.554688 240.230469 250.097656 238.515625 L 239.601562 238.941406 L 239.050781 234.554688 L 196.167969 234.953125 L 196.167969 245.480469 L 194.644531 245.480469 L 191.117188 242.578125 L 181.5 243.109375 L 175.648438 255.15625 L 256.125 250.253906 " fill-opacity="1" fill-rule="evenodd"/><path fill="#171b3e" d="M 196.21875 234.96875 C 196.21875 230.546875 205.835938 226.960938 217.703125 226.960938 C 229.566406 226.960938 239.183594 230.546875 239.183594 234.96875 C 239.183594 239.394531 229.566406 242.980469 217.703125 242.980469 C 205.835938 242.980469 196.21875 239.394531 196.21875 234.96875 " fill-opacity="1" fill-rule="nonzero"/><path fill="#171b3e" d="M 193.828125 201.519531 C 193.828125 196.707031 204.289062 192.808594 217.195312 192.808594 C 230.101562 192.808594 240.5625 196.707031 240.5625 201.519531 L 240.5625 206.742188 C 240.5625 211.554688 230.101562 215.453125 217.195312 215.453125 C 204.289062 215.453125 193.828125 211.554688 193.828125 206.742188 Z M 232.84375 203.359375 C 231.207031 200.882812 225.210938 199.046875 218.066406 199.046875 C 210.917969 199.046875 204.925781 200.882812 203.289062 203.359375 C 204.925781 205.835938 210.917969 207.671875 218.066406 207.671875 C 225.210938 207.671875 231.207031 205.835938 232.84375 203.359375 " fill-opacity="1" fill-rule="nonzero"/><path fill="#171b3e" d="M 214.550781 201.984375 L 221.390625 201.984375 L 221.390625 236.554688 L 214.550781 236.554688 L 214.550781 201.984375 " fill-opacity="1" fill-rule="nonzero"/><path fill="#171b3e" d="M 214.949219 212.382812 L 204.933594 218.804688 L 204.53125 233.96875 L 207.257812 235.890625 L 212.039062 234.957031 L 212.039062 223.628906 L 216.019531 220.589844 L 220.535156 220.589844 L 223.980469 222.910156 L 223.980469 232.902344 L 226.304688 234.421875 L 230.285156 232.503906 L 229.835938 218.671875 L 223.261719 212.117188 L 214.949219 212.382812 " fill-opacity="1" fill-rule="evenodd"/><path fill="#ffffff" d="M 189.847656 123.117188 C 189.863281 124.320312 189.667969 125.1875 189.261719 125.71875 C 188.125 125.308594 187.285156 125.308594 186.734375 125.71875 L 185.546875 129.921875 C 185.546875 131.296875 184.789062 131.746094 183.273438 131.257812 C 182.476562 130.902344 182.03125 130.5625 181.9375 130.242188 C 181.441406 130.019531 180.558594 129.980469 180.160156 129.753906 C 179.9375 130.203125 180.382812 130.648438 181.5 131.09375 L 181.839844 132.582031 L 183.691406 132.359375 L 182.6875 134.210938 C 182.707031 135.15625 181.851562 135.738281 181.09375 135.683594 C 179.203125 140.199219 176.550781 140.230469 172.152344 136.0625 C 169.722656 134.136719 168.347656 131.414062 168.019531 127.90625 C 167.503906 131.308594 168.234375 134.164062 170.210938 136.480469 L 167.769531 142.953125 C 168.910156 143.566406 170.648438 143.566406 172.988281 142.953125 L 168.609375 148.269531 C 162.816406 141.824219 160.328125 135.324219 160.109375 129.15625 L 164.492188 122.351562 C 164.605469 125.625 165.558594 126.804688 167.351562 125.886719 C 162.527344 122.945312 168.632812 109.796875 170.265625 120.4375 L 171.714844 121.003906 C 171.988281 120.210938 172.503906 119.878906 173.238281 119.59375 C 173.414062 118.464844 173.625 118.007812 174.007812 117.480469 C 178.390625 118.996094 182.207031 119.601562 189.847656 123.117188 " fill-opacity="1" fill-rule="evenodd"/><path fill="#ffffff" d="M 195.738281 122.105469 C 180.058594 118.554688 168.230469 113.898438 162.449219 113.023438 C 162.324219 112.382812 163.285156 111.882812 165.324219 111.519531 C 168.207031 102.421875 174.472656 98.785156 183.84375 100.542969 C 192.261719 102.121094 195.921875 107.6875 194.835938 118.980469 C 196.722656 121.394531 197.023438 122.4375 195.738281 122.105469 " fill-opacity="1" fill-rule="evenodd"/><path fill="#ffffff" d="M 160.257812 124.289062 C 153.941406 127.160156 154.011719 134.398438 155.226562 143.875 C 153.496094 139.289062 152.953125 135.089844 153.597656 131.273438 C 132.476562 134.03125 124.113281 153.058594 128.507812 188.351562 C 132.429688 193.742188 140.179688 196.757812 151.75 197.398438 L 147.027344 190.839844 C 142.109375 190.089844 139.117188 186.117188 138.042969 178.925781 C 133.257812 171.429688 131.011719 163.390625 131.296875 154.800781 C 133.488281 163.660156 136.125 170.445312 139.203125 175.152344 C 142 169.011719 148.015625 165.8125 157.246094 165.558594 C 157.402344 162.203125 155.714844 157.019531 152.179688 150.003906 C 156.550781 154.761719 159 160.089844 159.523438 165.984375 C 162.941406 168.671875 164.371094 172.339844 163.816406 176.996094 L 164.722656 180.855469 L 173.402344 182.953125 C 177.019531 180.855469 180.652344 174.890625 182.507812 171.171875 L 182.507812 173.136719 C 188.078125 167.683594 191.113281 157.671875 191.613281 143.105469 L 194.578125 156.132812 C 195.199219 157.484375 196.777344 158.753906 199.300781 159.941406 C 205.992188 159.980469 209.332031 156.027344 209.3125 148.074219 L 204.589844 144.472656 C 198.828125 137.164062 193.242188 132.761719 187.832031 131.273438 C 187.308594 132.253906 186.519531 133.039062 185.46875 133.632812 C 184.839844 135.429688 183.910156 136.628906 182.679688 137.234375 C 181.929688 138.984375 181.085938 140.023438 180.144531 140.359375 L 176.023438 140.921875 L 168.847656 152.445312 C 158.769531 139.191406 155.90625 129.808594 160.257812 124.289062 " fill-opacity="1" fill-rule="evenodd"/><path fill="#171b3e" d="M 184.050781 101.496094 C 188.082031 106.484375 189.199219 111.28125 187.40625 115.890625 L 190.023438 116.320312 C 191.210938 111.101562 189.21875 106.160156 184.050781 101.496094 " fill-opacity="1" fill-rule="evenodd"/><path fill="#171b3e" d="M 170.390625 112.035156 L 175.851562 113.195312 L 176.621094 109.898438 L 173.574219 108.992188 L 175.371094 110.496094 L 174.859375 112.425781 L 170.390625 112.035156 " fill-opacity="1" fill-rule="evenodd"/><path fill="#171b3e" d="M 178.726562 122.617188 C 179.316406 122.578125 180.550781 122.824219 182.421875 123.351562 C 182.648438 124.261719 183.292969 124.902344 184.355469 125.28125 L 180.300781 125.421875 C 179.746094 125.011719 179.222656 124.074219 178.726562 122.617188 " fill-opacity="1" fill-rule="evenodd"/><path fill="#171b3e" d="M 182.5625 134.304688 L 182.230469 133.5 L 181.554688 133.5 L 180.898438 132.84375 L 177.71875 132.117188 C 179.535156 133.519531 181.152344 134.246094 182.5625 134.304688 " fill-opacity="1" fill-rule="evenodd"/><path fill="#171b3e" d="M 180.570312 135.488281 C 179.089844 136.078125 178.183594 135.503906 177.851562 133.761719 C 178.566406 134.648438 179.472656 135.222656 180.570312 135.488281 " fill-opacity="1" fill-rule="evenodd"/><path fill="#171b3e" d="M 164.769531 148.683594 C 161.390625 141.511719 158.492188 140.714844 156.074219 146.28125 C 158.132812 145.496094 159.648438 142.785156 164.769531 148.683594 " fill-opacity="1" fill-rule="evenodd"/><path fill="#171b3e" d="M 173.730469 146.347656 C 175.882812 141.824219 178.007812 142.070312 180.109375 147.089844 C 177.851562 146.28125 176.78125 143.046875 173.730469 146.347656 " fill-opacity="1" fill-rule="evenodd"/><path fill="#171b3e" d="M 169.21875 154.171875 C 167.898438 166.21875 165.90625 173.503906 163.238281 176.023438 C 164.851562 172.078125 166.84375 164.792969 169.21875 154.171875 " fill-opacity="1" fill-rule="evenodd"/><path fill="#171b3e" d="M 186.480469 162.648438 L 185.277344 167.085938 L 179.300781 170.914062 L 173.269531 167.347656 L 179.167969 169.664062 L 184.621094 166.410156 L 186.480469 162.648438 " fill-opacity="1" fill-rule="evenodd"/><path fill="#ffffff" d="M 160.390625 175.285156 L 162.515625 182.054688 C 166.671875 183.132812 170.210938 184.210938 173.140625 185.289062 C 169.570312 189.472656 167.882812 193.777344 168.082031 198.207031 L 154.804688 195.625 C 151.671875 193.402344 149.261719 190.882812 147.574219 188.066406 C 148.050781 179.550781 152.320312 175.289062 160.390625 175.285156 " fill-opacity="1" fill-rule="evenodd"/><path fill="#ffffff" d="M 158.988281 167.28125 C 148.414062 166.367188 142.019531 169.875 139.796875 177.816406 C 139.550781 181.339844 140.460938 183.855469 142.53125 185.355469 C 142.5625 183.65625 143.066406 181.757812 144.046875 179.65625 C 143.800781 182.734375 144.351562 185.605469 145.710938 188.265625 C 147.160156 177.734375 152.625 172.878906 162.101562 173.707031 C 159.800781 171.96875 156.484375 171.742188 152.152344 173.03125 C 154.921875 171.511719 157.867188 171.097656 160.980469 171.785156 C 161.328125 170.054688 160.664062 168.554688 158.988281 167.28125 " fill-opacity="1" fill-rule="evenodd"/><path fill="#ffffff" d="M 175.855469 184.832031 C 170.425781 189.421875 168.363281 195.621094 169.679688 203.429688 L 184.882812 202.773438 L 186.203125 198.929688 L 186.613281 204.566406 C 186.714844 204.96875 187.261719 205.320312 188.261719 205.617188 L 189.792969 212.183594 C 190.855469 213.0625 192.117188 213.347656 193.582031 213.042969 L 192.644531 211.714844 L 191.195312 204.84375 C 191.363281 204.320312 191.582031 204.378906 191.851562 205.023438 L 193.449219 211.910156 L 196.21875 213.292969 C 197.503906 213.898438 198.839844 213.917969 200.21875 213.355469 L 196.496094 211.320312 L 195.285156 204.597656 C 195.527344 204.070312 195.839844 204.121094 196.21875 204.746094 L 197.503906 211.054688 L 202.148438 213.308594 C 204.390625 213.855469 205.851562 213.613281 206.53125 212.585938 L 201.011719 209.394531 L 199.824219 200.390625 C 199.613281 198.238281 200.496094 197.507812 202.476562 198.207031 C 205.234375 200.628906 207.378906 201.289062 208.917969 200.195312 L 204.800781 195.101562 C 203.179688 194.09375 199.082031 193.3125 192.511719 192.769531 L 175.855469 184.832031 " fill-opacity="1" fill-rule="evenodd"/><path fill="#ffffff" d="M 211.390625 148.414062 C 212.175781 156.664062 208.136719 161.261719 199.269531 162.210938 C 200.789062 162.847656 203.480469 162.847656 207.351562 162.210938 L 201.691406 164.28125 C 208.910156 167.203125 213.46875 163.417969 214.859375 154.515625 C 213.507812 150.292969 212.351562 148.257812 211.390625 148.414062 " fill-opacity="1" fill-rule="evenodd"/><path fill="#ffffff" d="M 216.796875 154.972656 C 216.0625 157.625 214.183594 161.15625 211.164062 165.558594 L 215.089844 162.347656 C 214.773438 168.507812 217.269531 172.917969 222.574219 175.574219 C 223.542969 173.527344 226.160156 172.070312 230.425781 171.203125 C 227.875 164.808594 223.332031 159.398438 216.796875 154.972656 " fill-opacity="1" fill-rule="evenodd"/><path fill="#ffffff" d="M 216.8125 212.257812 C 213.1875 212.257812 209.765625 211.925781 206.757812 211.34375 L 204.691406 208.914062 C 208.15625 209.777344 212.328125 210.28125 216.8125 210.28125 C 227.964844 210.28125 237.164062 207.160156 238.472656 203.132812 C 238.578125 203.457031 238.632812 203.789062 238.632812 204.121094 C 238.632812 208.613281 228.863281 212.257812 216.8125 212.257812 " fill-opacity="1" fill-rule="nonzero"/><path fill="#171b3e" d="M 211.695312 200.1875 C 211.695312 198.480469 214.507812 197.09375 217.980469 197.09375 C 221.457031 197.09375 224.269531 198.480469 224.269531 200.1875 C 224.269531 201.890625 221.457031 203.273438 217.980469 203.273438 C 214.507812 203.273438 211.695312 201.890625 211.695312 200.1875 " fill-opacity="1" fill-rule="nonzero"/><path fill="#171b3e" d="M 213.128906 200.144531 L 202.078125 202.707031 L 202.929688 206.136719 L 206.082031 207.457031 L 215.601562 203.367188 L 213.128906 200.144531 " fill-opacity="1" fill-rule="evenodd"/><path fill="#171b3e" d="M 220.835938 202.046875 L 229.789062 207.269531 L 233.507812 204.136719 L 223.40625 199.863281 L 220.835938 202.046875 " fill-opacity="1" fill-rule="evenodd"/><path fill="#ffffff" d="M 235.832031 174.414062 C 227.484375 172.351562 222.144531 175.191406 219.8125 182.925781 L 228.347656 188.914062 C 229.351562 188.191406 230.460938 187.839844 231.679688 187.867188 L 226.042969 194.992188 L 225.675781 202.59375 C 227.996094 204.3125 229.503906 202.203125 230.195312 196.265625 L 234.441406 195.242188 L 242.40625 201.800781 C 241.53125 206.742188 242.035156 209.269531 243.914062 209.378906 L 244.9375 200.75 L 237.453125 188.800781 L 233.871094 187.183594 C 234.933594 187.035156 236.167969 187.148438 237.566406 187.523438 L 235.832031 174.414062 " fill-opacity="1" fill-rule="evenodd"/><path fill="#ffffff" d="M 212.773438 198.472656 C 212.773438 198.214844 212.847656 197.96875 212.992188 197.734375 C 213.632812 198.789062 215.628906 199.558594 217.984375 199.558594 C 220.34375 199.558594 222.339844 198.789062 222.980469 197.734375 C 223.125 197.96875 223.199219 198.214844 223.199219 198.472656 C 223.199219 199.886719 220.867188 201.03125 217.984375 201.03125 C 215.105469 201.03125 212.773438 199.886719 212.773438 198.472656 " fill-opacity="1" fill-rule="nonzero"/><path fill="#ffffff" d="M 220.359375 221.664062 C 218.910156 223.75 217.179688 225.269531 215.171875 226.210938 C 219.730469 226.925781 221.472656 223.757812 220.359375 221.664062 " fill-opacity="1" fill-rule="evenodd"/><path fill="#ffffff" d="M 220.359375 225.320312 C 218.910156 227.40625 217.179688 228.925781 215.171875 229.867188 C 219.730469 230.582031 221.472656 227.414062 220.359375 225.320312 " fill-opacity="1" fill-rule="evenodd"/><path fill="#ffffff" d="M 220.359375 229.023438 C 218.910156 231.109375 217.179688 232.628906 215.171875 233.570312 C 219.730469 234.285156 221.472656 231.117188 220.359375 229.023438 " fill-opacity="1" fill-rule="evenodd"/><path fill="#ffffff" d="M 220.359375 232.589844 C 218.910156 234.679688 217.179688 236.195312 215.171875 237.140625 C 219.730469 237.851562 221.472656 234.6875 220.359375 232.589844 " fill-opacity="1" fill-rule="evenodd"/><path fill="#ffffff" d="M 213.785156 238.476562 L 213.816406 240.21875 L 210.519531 241.152344 L 207.660156 239.234375 L 208.109375 238.03125 L 210.609375 239.414062 L 213.785156 238.476562 " fill-opacity="1" fill-rule="evenodd"/><path fill="#ffffff" d="M 229.746094 237.496094 L 226.839844 239.234375 L 223.664062 238.03125 L 223.664062 239.503906 L 226.574219 240.574219 L 229.835938 239.054688 L 229.746094 237.496094 " fill-opacity="1" fill-rule="evenodd"/><path fill="#ffffff" d="M 219.910156 215.730469 L 219.910156 220.28125 C 219.03125 220.972656 217.691406 221.300781 215.886719 221.261719 C 218.203125 222.035156 219.84375 221.828125 220.804688 220.636719 L 220.804688 215.820312 L 219.910156 215.730469 " fill-opacity="1" fill-rule="evenodd"/><path fill="#ffffff" d="M 197.050781 242.660156 C 197.050781 242.453125 197.074219 242.246094 197.117188 242.039062 C 197.964844 245.992188 206.832031 249.101562 217.648438 249.101562 C 228.460938 249.101562 237.332031 245.992188 238.175781 242.039062 C 238.222656 242.246094 238.242188 242.453125 238.242188 242.660156 C 238.242188 246.902344 229.023438 250.339844 217.648438 250.339844 C 206.273438 250.339844 197.050781 246.902344 197.050781 242.660156 " fill-opacity="1" fill-rule="nonzero"/><path fill="#ffffff" d="M 197.207031 235.871094 C 197.207031 235.660156 197.230469 235.453125 197.273438 235.25 C 198.121094 239.203125 206.988281 242.308594 217.804688 242.308594 C 228.617188 242.308594 237.488281 239.203125 238.332031 235.25 C 238.378906 235.453125 238.398438 235.660156 238.398438 235.871094 C 238.398438 240.109375 229.179688 243.546875 217.804688 243.546875 C 206.429688 243.546875 197.207031 240.109375 197.207031 235.871094 " fill-opacity="1" fill-rule="nonzero"/><path fill="#ffffff" d="M 214.007812 215.742188 L 207.042969 220.347656 L 206.652344 235.566406 L 207.59375 235.957031 L 207.984375 220.816406 L 214.007812 215.742188 " fill-opacity="1" fill-rule="evenodd"/><path fill="#171b3e" d="M 104.371094 230.949219 C 106.933594 226.722656 108.925781 223.296875 110.347656 220.667969 C 126.8125 218.015625 135.648438 222.886719 136.859375 235.277344 C 132.234375 239.710938 126.796875 244.925781 119.109375 251.21875 C 113.050781 245.199219 108.054688 238.371094 104.371094 230.949219 " fill-opacity="1" fill-rule="nonzero"/><g clip-path="url(#e3bed3c310)"><path fill="#ffffff" d="M 249.402344 257.167969 C 249.085938 249.730469 246.335938 243.417969 242.484375 240.464844 L 247.785156 240.085938 C 251.0625 242.28125 253.617188 246.859375 254.699219 252.542969 C 253.011719 254.148438 251.242188 255.691406 249.402344 257.167969 M 192.273438 264.128906 C 192.273438 256.0625 189.421875 249.113281 185.324219 245.96875 L 190.621094 245.589844 C 195.003906 248.527344 198.101562 255.722656 198.101562 264.128906 C 198.101562 269.449219 196.859375 274.28125 194.839844 277.859375 C 192.871094 277.992188 190.882812 278.074219 188.878906 278.097656 C 190.976562 274.496094 192.273438 269.566406 192.273438 264.128906 M 239.53125 249.199219 C 240.539062 255.425781 240.328125 260.503906 238.898438 264.429688 C 234.578125 266.984375 229.984375 269.230469 225.164062 271.117188 C 219.621094 271.878906 212.875 272.535156 204.933594 273.09375 C 224.285156 271.289062 236.898438 260.660156 239.53125 249.199219 " fill-opacity="1" fill-rule="nonzero"/></g><path fill="#f1d319" d="M 181.804688 100.238281 C 173.597656 102.382812 169.085938 106.253906 168.269531 111.851562 C 171.84375 114.25 181.539062 117.265625 189.507812 120.59375 C 176.925781 117.347656 167.4375 113.777344 162.449219 113.023438 C 162.324219 112.382812 163.285156 111.882812 165.324219 111.519531 C 167.996094 103.097656 173.558594 99.355469 181.804688 100.238281 " fill-opacity="1" fill-rule="nonzero"/><path fill="#f1d319" d="M 168.746094 116.535156 C 166.554688 117.101562 164.964844 124.789062 168.746094 125.539062 C 167.609375 130.96875 175.527344 139.351562 179.726562 138.015625 C 177.953125 140.011719 175.582031 139.3125 172.152344 136.0625 C 169.722656 134.136719 168.347656 131.414062 168.019531 127.90625 C 167.503906 131.308594 168.234375 134.164062 170.210938 136.480469 L 167.769531 142.953125 C 168.910156 143.566406 170.648438 143.566406 172.988281 142.953125 L 168.609375 148.269531 C 162.816406 141.824219 160.328125 135.324219 160.109375 129.15625 L 164.492188 122.351562 C 164.605469 125.625 165.558594 126.804688 167.351562 125.886719 C 163.566406 123.578125 166.511719 114.980469 168.746094 116.535156 " fill-opacity="1" fill-rule="nonzero"/><path fill="#f1d319" d="M 143.746094 134.183594 C 131.929688 149.277344 135.003906 160.21875 141.980469 171.019531 C 140.84375 172.203125 139.921875 173.582031 139.203125 175.152344 C 136.125 170.445312 133.488281 163.660156 131.296875 154.800781 C 131.011719 163.386719 133.257812 171.429688 138.042969 178.925781 C 139.117188 186.117188 142.109375 190.089844 147.027344 190.839844 L 151.75 197.398438 C 140.179688 196.757812 132.429688 193.742188 128.507812 188.351562 C 124.875 159.191406 129.957031 141.132812 143.746094 134.183594 " fill-opacity="1" fill-rule="nonzero"/><path fill="#f1d319" d="M 150.183594 179.585938 L 156.167969 190.015625 L 168.4375 194.140625 C 168.140625 195.484375 168.019531 196.839844 168.082031 198.207031 L 154.804688 195.625 C 151.671875 193.402344 149.261719 190.882812 147.574219 188.066406 C 147.773438 184.492188 148.644531 181.664062 150.183594 179.585938 " fill-opacity="1" fill-rule="nonzero"/><path fill="#f1d319" d="M 214.640625 159.972656 C 219.628906 165.992188 223.507812 170.148438 226.269531 172.453125 C 224.40625 173.265625 223.171875 174.308594 222.574219 175.574219 C 217.269531 172.917969 214.773438 168.507812 215.089844 162.347656 L 211.164062 165.558594 C 212.570312 163.507812 213.730469 161.644531 214.640625 159.972656 " fill-opacity="1" fill-rule="nonzero"/><path fill="#f1d319" d="M 189.832031 123.738281 C 181.414062 121.734375 175.496094 118.738281 173.367188 118.902344 C 173.523438 118.246094 173.714844 117.882812 174.007812 117.480469 C 178.390625 118.996094 182.207031 119.601562 189.847656 123.117188 C 189.851562 123.335938 189.84375 123.539062 189.832031 123.738281 " fill-opacity="1" fill-rule="nonzero"/><path fill="#f1d319" d="M 169.6875 195.003906 L 185.675781 197.875 C 191.167969 199.53125 194.996094 200.210938 197.167969 199.910156 L 200.085938 209.953125 L 205.535156 213.375 C 204.738281 213.6875 203.609375 213.664062 202.148438 213.308594 L 197.503906 211.054688 L 196.21875 204.746094 C 195.839844 204.121094 195.527344 204.070312 195.285156 204.597656 L 196.496094 211.320312 L 200.21875 213.355469 C 198.839844 213.917969 197.503906 213.898438 196.21875 213.292969 L 193.449219 211.910156 L 191.851562 205.023438 C 191.582031 204.378906 191.363281 204.320312 191.195312 204.84375 L 192.644531 211.714844 L 193.582031 213.042969 C 192.117188 213.347656 190.855469 213.0625 189.792969 212.183594 L 188.261719 205.617188 C 187.261719 205.320312 186.714844 204.96875 186.613281 204.566406 L 186.203125 198.929688 L 184.882812 202.773438 L 169.679688 203.429688 C 169.164062 200.375 169.167969 197.566406 169.6875 195.003906 " fill-opacity="1" fill-rule="nonzero"/><path fill="#f1d319" d="M 186.789062 205.878906 L 187.675781 211.695312 C 187.953125 212.101562 188.304688 212.300781 188.734375 212.285156 L 186.789062 205.878906 " fill-opacity="1" fill-rule="evenodd"/><path fill="#f1d319" d="M 226.476562 174.570312 L 232.355469 188.148438 L 228.078125 195.203125 L 227.097656 203.171875 C 226.664062 203.167969 226.1875 202.976562 225.675781 202.59375 L 226.042969 194.992188 L 231.679688 187.867188 C 230.460938 187.839844 229.351562 188.191406 228.347656 188.914062 L 219.8125 182.925781 C 221.105469 178.632812 223.328125 175.847656 226.476562 174.570312 " fill-opacity="1" fill-rule="nonzero"/><path fill="#ffffff" d="M 204.183594 231.800781 L 204.210938 233.542969 L 200.917969 234.476562 L 198.058594 232.558594 L 198.503906 231.355469 L 201.007812 232.738281 L 204.183594 231.800781 " fill-opacity="1" fill-rule="evenodd"/><path fill="#ffffff" d="M 236.328125 232.042969 L 236.359375 233.78125 L 233.0625 234.714844 L 230.203125 232.796875 L 230.648438 231.59375 L 233.152344 232.976562 L 236.328125 232.042969 " fill-opacity="1" fill-rule="evenodd"/></svg>